<?xml version="1.0" encoding="UTF-8"?>
<svg version="1.1" xmlns="http://www.w3.org/2000/svg" width="512" height="512">
<path d="M0 0 C1.32396412 -0.00935994 1.32396412 -0.00935994 2.67467499 -0.01890898 C5.63820449 -0.03488939 8.60091723 -0.02221496 11.56445312 -0.00964355 C13.68660971 -0.01506242 15.80876253 -0.02218375 17.9309082 -0.03088379 C23.69944448 -0.04914793 29.46769519 -0.04203675 35.23623657 -0.02936745 C41.26687401 -0.01925584 47.29748663 -0.02862801 53.328125 -0.03491211 C63.45642497 -0.04219387 73.58460835 -0.03258689 83.71289062 -0.0135498 C95.43046156 0.00821986 107.14775411 0.00116887 118.8653183 -0.02085543 C128.9172072 -0.03899431 138.96901219 -0.04157513 149.02091217 -0.03110075 C155.02822942 -0.02485753 161.03541572 -0.024053 167.04272461 -0.0372467 C172.68986066 -0.04878253 178.33663703 -0.04082075 183.98373413 -0.01766968 C186.05902509 -0.01237048 188.1343462 -0.01391694 190.20962524 -0.02272034 C193.03729732 -0.0336115 195.86380863 -0.01999008 198.69140625 0 C199.51747124 -0.00892289 200.34353622 -0.01784577 201.19463348 -0.02703905 C204.56844131 0.01939405 206.93418665 0.26230913 209.85653305 2.00659561 C211.99965973 5.60637669 211.88500388 8.96933923 211.82672119 13.03729248 C211.83013889 13.90642328 211.83355659 14.77555408 211.83707786 15.67102218 C211.84367611 18.58867291 211.82164857 21.5054074 211.79980469 24.42297363 C211.79867663 26.51220681 211.79930925 28.60144157 211.80157471 30.69067383 C211.80272441 36.3680802 211.77917345 42.04514992 211.75127888 47.72247791 C211.72630798 53.65353002 211.72392662 59.58458947 211.71917725 65.51568604 C211.7067348 76.74957225 211.67389593 87.98330313 211.63377929 99.21712089 C211.58910112 112.00534022 211.56708447 124.79356688 211.54699755 137.58184481 C211.50516449 163.89062758 211.4347877 190.19927238 211.34570312 216.50793457 C212.39337734 216.5042474 213.44105156 216.50056023 214.52047348 216.49676132 C239.99139698 216.40803447 265.46230049 216.34226551 290.93334579 216.30068588 C303.25086707 216.28004477 315.56828636 216.2518945 327.88574219 216.20617676 C338.6193709 216.16635651 349.35292577 216.14051304 360.08662629 216.13158059 C365.77211536 216.12635771 371.45739316 216.11404974 377.14281464 216.08501434 C382.49108132 216.05792136 387.83904914 216.04947722 393.18737793 216.05550385 C395.15303419 216.05440087 397.11870015 216.04641074 399.08429718 216.03111267 C401.76325384 216.01128042 404.44107451 216.01597046 407.12005615 216.0269165 C407.90215824 216.01526514 408.68426033 216.00361377 409.49006248 215.99160933 C412.77115123 216.02797458 414.99754844 216.29812301 417.82974243 218.00491333 C420.00787348 221.60125215 419.88517171 224.95762502 419.82672119 229.03729248 C419.83013889 229.90642328 419.83355659 230.77555408 419.83707786 231.67102218 C419.84367611 234.58867291 419.82164857 237.5054074 419.79980469 240.42297363 C419.79867663 242.51220681 419.79930925 244.60144157 419.80157471 246.69067383 C419.80272441 252.3680802 419.77917345 258.04514992 419.75127888 263.72247791 C419.72630798 269.65353002 419.72392662 275.58458947 419.71917725 281.51568604 C419.7067348 292.74957225 419.67389593 303.98330313 419.63377929 315.21712089 C419.58910112 328.00534022 419.56708447 340.79356688 419.54699755 353.58184481 C419.50516449 379.89062758 419.4347877 406.19927238 419.34570312 432.50793457 C420.29445313 432.61105957 421.24320312 432.71418457 422.22070312 432.82043457 C425.34570312 433.50793457 425.34570312 433.50793457 427.34570312 436.50793457 C428.02163641 443.60523405 428.02163641 443.60523405 425.77643585 446.60367155 C422.56415091 449.12021125 419.90721007 449.06409613 415.99304199 449.01129913 C415.24674058 449.0171129 414.50043917 449.02292666 413.73152256 449.0289166 C411.21652424 449.04358065 408.70249212 449.02960214 406.1875 449.01586914 C404.37198129 449.02047554 402.55646631 449.02682669 400.74095917 449.03477812 C395.74092567 449.05153049 390.74119617 449.04319831 385.74116135 449.03083324 C380.35321709 449.02180918 374.96532632 449.03573931 369.57739258 449.04675293 C359.01804724 449.06457106 348.45881541 449.06068351 337.89946556 449.04910237 C329.32025595 449.04008126 320.74107822 449.03883831 312.16186523 449.04319763 C310.94240314 449.04381056 309.72294105 449.0444235 308.46652555 449.045055 C305.98947461 449.04633386 303.51242366 449.04763071 301.03537273 449.04894537 C277.78953682 449.06036082 254.54376393 449.04722233 231.29793835 449.0257439 C211.33726587 449.00787206 191.37668643 449.0109759 171.41601562 449.02941895 C148.25528683 449.05080862 125.09461333 449.05926209 101.93387604 449.04696989 C99.46576437 449.04569565 96.9976527 449.04443817 94.52954102 449.04319763 C92.70784244 449.04227198 92.70784244 449.04227198 90.84934187 449.04132763 C82.27707057 449.03786901 73.70483424 449.04371407 65.13256836 449.05311584 C54.69065009 449.06431608 44.24885214 449.06133744 33.80694771 449.03999287 C28.4758555 449.02945583 23.14496416 449.02540571 17.81387329 449.03858948 C12.93843491 449.05046437 8.06338453 449.04403221 3.18798161 449.02267927 C1.41953956 449.01819232 -0.34893493 449.02052604 -2.1173563 449.03018242 C-4.51258892 449.0422633 -6.90647469 449.02995768 -9.30163574 449.01129913 C-9.99589629 449.0206638 -10.69015684 449.03002846 -11.40545559 449.0396769 C-14.76319621 448.98702878 -16.40565271 448.70330314 -19.08063507 446.60147429 C-21.25409536 443.70998551 -21.22800784 441.91897299 -21.04492188 438.41418457 C-20.43293276 435.42767769 -19.14670236 434.16953823 -16.65429688 432.50793457 C-15.33429687 432.50793457 -14.01429687 432.50793457 -12.65429688 432.50793457 C-12.6565752 431.15176037 -12.6565752 431.15176037 -12.65889955 429.76818871 C-12.7483433 376.22487115 -12.8170084 322.68156148 -12.85855819 269.1381842 C-12.86356123 262.71423368 -12.8687385 256.29028331 -12.87402344 249.86633301 C-12.87507268 248.58739913 -12.87612192 247.30846525 -12.87720296 245.99077579 C-12.89462494 225.26177075 -12.92617249 204.53280992 -12.96290806 183.80383113 C-13.0002676 162.5460213 -13.02252216 141.28823468 -13.03065085 120.03039336 C-13.03614898 106.90512502 -13.05353622 93.77998164 -13.08596274 80.65475175 C-13.1070491 71.66357699 -13.11351029 62.67246715 -13.10830238 53.68126944 C-13.10573143 48.48790474 -13.10976963 43.29475892 -13.13111877 38.1014328 C-13.15050261 33.3516878 -13.15162033 28.60231004 -13.13789245 23.85254857 C-13.13619438 22.12973582 -13.14133762 20.40690067 -13.1538296 18.68413237 C-13.16977444 16.35041979 -13.1612988 14.0180504 -13.14648819 11.6843605 C-13.14876651 9.73639521 -13.14876651 9.73639521 -13.15109086 7.74907708 C-12.65429688 4.50793457 -12.65429688 4.50793457 -10.86443305 2.09086823 C-7.47250275 -0.33848463 -4.01641275 -0.04338399 0 0 Z M3.34570312 16.50793457 C3.34570312 153.78793457 3.34570312 291.06793457 3.34570312 432.50793457 C24.46570313 432.50793457 45.58570313 432.50793457 67.34570312 432.50793457 C67.34570312 414.02793457 67.34570312 395.54793457 67.34570312 376.50793457 C63.38570312 376.17793457 59.42570312 375.84793457 55.34570312 375.50793457 C52.34570312 372.50793457 52.34570312 372.50793457 51.94726562 370.57043457 C51.955 369.88980957 51.96273437 369.20918457 51.97070312 368.50793457 C51.96296875 367.82730957 51.95523438 367.14668457 51.94726562 366.44543457 C52.49903677 363.76231213 53.08148867 363.09782945 55.34570312 361.50793457 C58.20827461 361.21171566 60.85331476 361.09821298 63.71679688 361.11975098 C64.99769699 361.11186554 64.99769699 361.11186554 66.30447388 361.1038208 C69.1309023 361.09060267 71.95676884 361.09936525 74.78320312 361.10949707 C76.74471139 361.10747686 78.70621892 361.10456586 80.66772461 361.10079956 C84.78018337 361.09637375 88.89244675 361.10281556 93.00488281 361.11682129 C98.28122 361.13391328 103.55709942 361.12407347 108.8334198 361.1061039 C112.88427186 361.09527302 116.93501506 361.09870921 120.98587036 361.10648727 C122.93156997 361.10849121 124.87727939 361.10602326 126.82296753 361.09904861 C129.54044853 361.0914456 132.25718403 361.10302205 134.97460938 361.11975098 C135.7819754 361.11367828 136.58934143 361.10760559 137.4211731 361.10134888 C142.85511071 361.16344849 142.85511071 361.16344849 145.34399414 362.91110229 C146.59224852 364.90095455 146.7473049 366.16697865 146.72070312 368.50793457 C146.7284375 369.18855957 146.73617187 369.86918457 146.74414062 370.57043457 C146.34570312 372.50793457 146.34570312 372.50793457 143.34570312 375.50793457 C139.38570312 375.83793457 135.42570313 376.16793457 131.34570312 376.50793457 C131.34570312 394.98793457 131.34570312 413.46793457 131.34570312 432.50793457 C152.46570313 432.50793457 173.58570313 432.50793457 195.34570312 432.50793457 C195.34570312 295.22793457 195.34570312 157.94793457 195.34570312 16.50793457 C131.98570312 16.50793457 68.62570313 16.50793457 3.34570312 16.50793457 Z M211.34570312 232.50793457 C211.34570312 298.50793457 211.34570312 364.50793457 211.34570312 432.50793457 C274.70570313 432.50793457 338.06570313 432.50793457 403.34570312 432.50793457 C403.34570312 366.50793457 403.34570312 300.50793457 403.34570312 232.50793457 C339.98570312 232.50793457 276.62570312 232.50793457 211.34570312 232.50793457 Z M83.34570312 376.50793457 C83.34570312 394.98793457 83.34570312 413.46793457 83.34570312 432.50793457 C93.90570313 432.50793457 104.46570313 432.50793457 115.34570312 432.50793457 C115.34570312 414.02793457 115.34570312 395.54793457 115.34570312 376.50793457 C104.78570312 376.50793457 94.22570312 376.50793457 83.34570312 376.50793457 Z " fill="#000000" transform="translate(52.654296875,31.4920654296875)"/>
<path d="M0 0 C6.85598329 -0.46467285 6.85598329 -0.46467285 9.96050358 1.56675243 C10.56288569 2.13182664 11.16526781 2.69690084 11.78590393 3.27909851 C12.47402727 3.91812292 13.16215061 4.55714733 13.87112617 5.21553612 C14.57945532 5.90189455 15.28778446 6.58825298 16.01757812 7.29541016 C16.71215559 7.96464319 17.40673306 8.63387623 18.12235832 9.32338905 C20.39834209 11.5463334 22.64952927 13.79215986 24.89624023 16.04467773 C25.74436279 16.89104797 26.59248535 17.73741821 27.46630859 18.60943604 C29.76729344 20.90680116 32.06604939 23.20636588 34.3636291 25.50713563 C36.77595291 27.92200948 39.19073625 30.33442198 41.6051178 32.74723816 C45.65073377 36.79104221 49.6942527 40.83693413 53.73657227 44.8840332 C58.41090574 49.56382954 63.0888605 54.23998286 67.76866907 58.9143036 C71.79528153 62.93638335 75.81994879 66.96040176 79.84298521 70.98605841 C82.24239797 73.38703023 84.64248156 75.78732098 87.04432487 78.18586159 C89.7135303 80.85254021 92.37953095 83.52238114 95.04467773 86.19311523 C95.84202835 86.98844162 96.63937897 87.78376801 97.46089172 88.60319519 C98.18273651 89.3278598 98.9045813 90.05252441 99.64830017 90.79914856 C100.27855575 91.42978116 100.90881132 92.06041376 101.55816555 92.71015644 C103.47211887 94.7891447 103.98578408 96.12849143 104.51757812 98.92041016 C103.33723628 106.88771759 93.78766171 113.66894979 88.26831055 119.17407227 C87.42194031 120.02219482 86.57557007 120.87031738 85.70355225 121.74414062 C83.40618712 124.04512547 81.10662241 126.34388142 78.80585265 128.64146113 C76.39097881 131.05378494 73.97856631 133.46856828 71.56575012 135.88294983 C67.52194607 139.9285658 63.47605415 143.97208473 59.42895508 148.0144043 C54.74915874 152.68873777 50.07300542 157.36669253 45.39868468 162.0465011 C41.37660493 166.07311357 37.35258652 170.09778082 33.32692987 174.12081724 C30.92595805 176.52023 28.5256673 178.92031359 26.12712669 181.32215691 C23.46044807 183.99136233 20.79060714 186.65736299 18.11987305 189.32250977 C17.32454666 190.11986038 16.52922028 190.917211 15.70979309 191.73872375 C14.98512848 192.46056854 14.26046387 193.18241333 13.51383972 193.9261322 C12.88320712 194.55638778 12.25257452 195.18664335 11.60283184 195.83599758 C9.52384358 197.7499509 8.18449685 198.26361611 5.39257812 198.79541016 C-2.57472931 197.61506831 -9.35596151 188.06549374 -14.86108398 182.54614258 C-15.70920654 181.69977234 -16.5573291 180.8534021 -17.43115234 179.98138428 C-19.73213719 177.68401916 -22.03089314 175.38445444 -24.32847285 173.08368468 C-26.74079666 170.66881084 -29.15558 168.25639834 -31.56996155 165.84358215 C-35.61557752 161.7997781 -39.65909645 157.75388618 -43.70141602 153.70678711 C-48.37574949 149.02699077 -53.05370425 144.35083745 -57.73351282 139.67651671 C-61.76012528 135.65443696 -65.78479254 131.63041855 -69.80782896 127.6047619 C-72.20724172 125.20379008 -74.60732531 122.80349933 -77.00916862 120.40495872 C-79.67837405 117.7382801 -82.3443747 115.06843917 -85.00952148 112.39770508 C-85.8068721 111.60237869 -86.60422272 110.80705231 -87.42573547 109.98762512 C-88.50850266 108.9006282 -88.50850266 108.9006282 -89.61314392 107.79167175 C-90.2433995 107.16103915 -90.87365507 106.53040655 -91.5230093 105.88066387 C-95.43253503 101.63403046 -94.11458964 95.71983121 -93.98242188 90.29541016 C-93.77889238 85.64224594 -93.48734305 80.99729893 -93.17773438 76.35009766 C-93.09369354 75.05903107 -93.00965271 73.76796448 -92.92306519 72.43777466 C-92.7458711 69.72655747 -92.56560205 67.01556586 -92.38330078 64.3046875 C-92.15196288 60.85826238 -91.93035721 57.41128765 -91.71129036 53.96406364 C-91.49789222 50.63399737 -91.27472906 47.30460182 -91.05273438 43.97509766 C-90.97556183 42.75192841 -90.89838928 41.52875916 -90.81887817 40.26852417 C-89.27717677 17.86092272 -89.27717677 17.86092272 -80.54492188 9.98291016 C-75.54996774 5.75284459 -70.40289041 4.94118277 -64.01757812 4.51416016 C-63.23976486 4.45573441 -62.4619516 4.39730865 -61.66056824 4.33711243 C-59.12253094 4.14857359 -56.5838359 3.97171536 -54.04492188 3.79541016 C-52.28739368 3.66796627 -50.52990687 3.5399503 -48.77246094 3.41137695 C-44.34740696 3.08993249 -39.92169314 2.77885753 -35.4956665 2.47113037 C-32.40393033 2.25496337 -29.31268074 2.03232599 -26.22142029 1.80947876 C-22.89209157 1.57068053 -19.56228848 1.33909482 -16.23242188 1.10791016 C-15.04656494 1.02412109 -13.86070801 0.94033203 -12.63891602 0.85400391 C-10.44128577 0.70716822 -8.2425675 0.57551308 -6.04296875 0.46191406 C-4.02575275 0.35217082 -2.01036125 0.19912714 0 0 Z M-7.81738281 17.63085938 C-8.99250427 17.704487 -10.16762573 17.77811462 -11.37835693 17.85397339 C-16.74558168 18.19812473 -22.11269207 18.54382947 -27.47949219 18.89453125 C-30.30737581 19.078909 -33.13547785 19.2590996 -35.96386719 19.43554688 C-40.0487427 19.69039564 -44.132748 19.95732255 -48.21679688 20.22509766 C-49.47538513 20.3022702 -50.73397339 20.37944275 -52.03070068 20.45895386 C-58.21333348 20.87503312 -64.09806748 21.27557867 -69.98242188 23.29541016 C-71.98694339 26.30219244 -72.34738984 27.84072409 -72.98242188 31.29541016 C-73.55106979 33.05170547 -74.14146021 34.80104789 -74.74853516 36.54443359 C-77.14502838 43.93206876 -78.84446014 51.39148366 -80.10742188 59.04541016 C-80.22287857 59.74114513 -80.33833527 60.43688011 -80.45729065 61.15369797 C-82.6475518 75.45123604 -81.86365201 89.48367989 -73.50939941 101.72418213 C-62.81360334 116.11495845 -49.76960545 128.61803826 -36.73242188 140.85791016 C-36.24689504 141.31441137 -35.7613682 141.77091259 -35.26112843 142.24124718 C-22.46170976 154.26074136 -9.36746646 165.93187767 4.01757812 177.29541016 C6.97912811 175.96168599 9.05734607 174.50383091 11.34588623 172.20761108 C11.98244644 171.5738002 12.61900665 170.93998932 13.27485657 170.28697205 C13.96178085 169.59285721 14.64870514 168.89874237 15.35644531 168.18359375 C16.08854721 167.45178391 16.82064911 166.71997406 17.57493591 165.96598816 C19.99287921 163.54665186 22.40366182 161.12030903 24.81445312 158.69384766 C26.48981842 157.01475214 28.16562591 155.33609772 29.84185791 153.65786743 C34.25213314 149.23995654 38.65636925 144.81607235 43.05938721 140.39093018 C47.55354733 135.87631029 52.05337551 131.36734783 56.55273438 126.85791016 C65.37991509 118.0092807 74.2007281 109.1543324 83.01757812 100.29541016 C81.66085533 97.26946822 80.13822394 95.16221915 77.80484009 92.81524658 C77.14315323 92.14502975 76.48146637 91.47481293 75.79972839 90.7842865 C75.07449478 90.05995926 74.34926117 89.33563202 73.60205078 88.58935547 C72.83765182 87.81823929 72.07325287 87.04712311 71.28569031 86.25263977 C68.7563175 83.70426163 66.21945783 81.16350225 63.68164062 78.62353516 C61.92273196 76.85820213 60.16397543 75.09271752 58.40536499 73.3270874 C54.71847144 69.628216 51.02746349 65.9335058 47.33398438 62.24121094 C43.06337144 57.97180126 38.80405705 53.69134502 34.54985201 49.40559125 C30.45584439 45.2823078 26.35085583 41.17010538 22.24158859 37.06203461 C20.49440801 35.31248788 18.75048347 33.5596834 17.00984573 31.80362701 C14.57987624 29.3541503 12.13766871 26.91756843 9.69189453 24.48388672 C8.97070938 23.75146255 8.24952423 23.01903839 7.50648499 22.26441956 C6.83915848 21.60548203 6.17183197 20.94654449 5.48428345 20.26763916 C4.90799509 19.69026127 4.33170673 19.11288338 3.73795509 18.51800919 C0.5270534 16.23615738 -4.01509171 17.39147838 -7.81738281 17.63085938 Z " fill="#000000" transform="translate(379.982421875,29.70458984375)"/>
<path d="M0 0 C0.87269531 -0.0038269 1.74539063 -0.00765381 2.64453125 -0.01159668 C4.48699092 -0.0143149 6.32948924 -0.00695994 8.171875 0.00976562 C10.99045934 0.03117752 13.80649485 0.00996199 16.625 -0.015625 C18.41667229 -0.01298171 20.20834299 -0.00785669 22 0 C22.84175781 -0.00809692 23.68351562 -0.01619385 24.55078125 -0.02453613 C28.13136419 0.03278396 30.39761762 0.18098442 33.52929688 2.00195312 C35.73374916 5.79314264 35.57275697 9.21617695 35.53125 13.53125 C35.5350769 14.40394531 35.53890381 15.27664063 35.54284668 16.17578125 C35.5455649 18.01824092 35.53820994 19.86073924 35.52148438 21.703125 C35.50007248 24.52170934 35.52128801 27.33774485 35.546875 30.15625 C35.54423171 31.94792229 35.53910669 33.73959299 35.53125 35.53125 C35.53934692 36.37300781 35.54744385 37.21476562 35.55578613 38.08203125 C35.49846604 41.66261419 35.35026558 43.92886762 33.52929688 47.06054688 C29.73810736 49.26499916 26.31507305 49.10400697 22 49.0625 C21.12730469 49.0663269 20.25460937 49.07015381 19.35546875 49.07409668 C17.51300908 49.0768149 15.67051076 49.06945994 13.828125 49.05273438 C11.00954066 49.03132248 8.19350515 49.05253801 5.375 49.078125 C3.58332771 49.07548171 1.79165701 49.07035669 0 49.0625 C-0.84175781 49.07059692 -1.68351562 49.07869385 -2.55078125 49.08703613 C-6.13136419 49.02971604 -8.39761762 48.88151558 -11.52929688 47.06054688 C-13.73374916 43.26935736 -13.57275697 39.84632305 -13.53125 35.53125 C-13.5350769 34.65855469 -13.53890381 33.78585937 -13.54284668 32.88671875 C-13.5455649 31.04425908 -13.53820994 29.20176076 -13.52148438 27.359375 C-13.50007248 24.54079066 -13.52128801 21.72475515 -13.546875 18.90625 C-13.54423171 17.11457771 -13.53910669 15.32290701 -13.53125 13.53125 C-13.53934692 12.68949219 -13.54744385 11.84773438 -13.55578613 10.98046875 C-13.49846604 7.39988581 -13.35026558 5.13363238 -11.52929688 2.00195312 C-7.73810736 -0.20249916 -4.31507305 -0.04150697 0 0 Z M3 16.53125 C3 21.81125 3 27.09125 3 32.53125 C8.28 32.53125 13.56 32.53125 19 32.53125 C19 27.25125 19 21.97125 19 16.53125 C13.72 16.53125 8.44 16.53125 3 16.53125 Z " fill="#000000" transform="translate(405,391.46875)"/>
<path d="M0 0 C0.87269531 -0.0038269 1.74539063 -0.00765381 2.64453125 -0.01159668 C4.48699092 -0.0143149 6.32948924 -0.00695994 8.171875 0.00976562 C10.99045934 0.03117752 13.80649485 0.00996199 16.625 -0.015625 C18.41667229 -0.01298171 20.20834299 -0.00785669 22 0 C22.84175781 -0.00809692 23.68351562 -0.01619385 24.55078125 -0.02453613 C28.13136419 0.03278396 30.39761762 0.18098442 33.52929688 2.00195312 C35.73374916 5.79314264 35.57275697 9.21617695 35.53125 13.53125 C35.5350769 14.40394531 35.53890381 15.27664063 35.54284668 16.17578125 C35.5455649 18.01824092 35.53820994 19.86073924 35.52148438 21.703125 C35.50007248 24.52170934 35.52128801 27.33774485 35.546875 30.15625 C35.54423171 31.94792229 35.53910669 33.73959299 35.53125 35.53125 C35.53934692 36.37300781 35.54744385 37.21476562 35.55578613 38.08203125 C35.49846604 41.66261419 35.35026558 43.92886762 33.52929688 47.06054688 C29.73810736 49.26499916 26.31507305 49.10400697 22 49.0625 C21.12730469 49.0663269 20.25460937 49.07015381 19.35546875 49.07409668 C17.51300908 49.0768149 15.67051076 49.06945994 13.828125 49.05273438 C11.00954066 49.03132248 8.19350515 49.05253801 5.375 49.078125 C3.58332771 49.07548171 1.79165701 49.07035669 0 49.0625 C-0.84175781 49.07059692 -1.68351562 49.07869385 -2.55078125 49.08703613 C-6.13136419 49.02971604 -8.39761762 48.88151558 -11.52929688 47.06054688 C-13.73374916 43.26935736 -13.57275697 39.84632305 -13.53125 35.53125 C-13.5350769 34.65855469 -13.53890381 33.78585937 -13.54284668 32.88671875 C-13.5455649 31.04425908 -13.53820994 29.20176076 -13.52148438 27.359375 C-13.50007248 24.54079066 -13.52128801 21.72475515 -13.546875 18.90625 C-13.54423171 17.11457771 -13.53910669 15.32290701 -13.53125 13.53125 C-13.53934692 12.68949219 -13.54744385 11.84773438 -13.55578613 10.98046875 C-13.49846604 7.39988581 -13.35026558 5.13363238 -11.52929688 2.00195312 C-7.73810736 -0.20249916 -4.31507305 -0.04150697 0 0 Z M3 16.53125 C3 21.81125 3 27.09125 3 32.53125 C8.28 32.53125 13.56 32.53125 19 32.53125 C19 27.25125 19 21.97125 19 16.53125 C13.72 16.53125 8.44 16.53125 3 16.53125 Z " fill="#000000" transform="translate(349,391.46875)"/>
<path d="M0 0 C0.87269531 -0.0038269 1.74539063 -0.00765381 2.64453125 -0.01159668 C4.48699092 -0.0143149 6.32948924 -0.00695994 8.171875 0.00976562 C10.99045934 0.03117752 13.80649485 0.00996199 16.625 -0.015625 C18.41667229 -0.01298171 20.20834299 -0.00785669 22 0 C22.84175781 -0.00809692 23.68351562 -0.01619385 24.55078125 -0.02453613 C28.13136419 0.03278396 30.39761762 0.18098442 33.52929688 2.00195312 C35.73374916 5.79314264 35.57275697 9.21617695 35.53125 13.53125 C35.5350769 14.40394531 35.53890381 15.27664063 35.54284668 16.17578125 C35.5455649 18.01824092 35.53820994 19.86073924 35.52148438 21.703125 C35.50007248 24.52170934 35.52128801 27.33774485 35.546875 30.15625 C35.54423171 31.94792229 35.53910669 33.73959299 35.53125 35.53125 C35.53934692 36.37300781 35.54744385 37.21476562 35.55578613 38.08203125 C35.49846604 41.66261419 35.35026558 43.92886762 33.52929688 47.06054688 C29.73810736 49.26499916 26.31507305 49.10400697 22 49.0625 C21.12730469 49.0663269 20.25460937 49.07015381 19.35546875 49.07409668 C17.51300908 49.0768149 15.67051076 49.06945994 13.828125 49.05273438 C11.00954066 49.03132248 8.19350515 49.05253801 5.375 49.078125 C3.58332771 49.07548171 1.79165701 49.07035669 0 49.0625 C-0.84175781 49.07059692 -1.68351562 49.07869385 -2.55078125 49.08703613 C-6.13136419 49.02971604 -8.39761762 48.88151558 -11.52929688 47.06054688 C-13.73374916 43.26935736 -13.57275697 39.84632305 -13.53125 35.53125 C-13.5350769 34.65855469 -13.53890381 33.78585937 -13.54284668 32.88671875 C-13.5455649 31.04425908 -13.53820994 29.20176076 -13.52148438 27.359375 C-13.50007248 24.54079066 -13.52128801 21.72475515 -13.546875 18.90625 C-13.54423171 17.11457771 -13.53910669 15.32290701 -13.53125 13.53125 C-13.53934692 12.68949219 -13.54744385 11.84773438 -13.55578613 10.98046875 C-13.49846604 7.39988581 -13.35026558 5.13363238 -11.52929688 2.00195312 C-7.73810736 -0.20249916 -4.31507305 -0.04150697 0 0 Z M3 16.53125 C3 21.81125 3 27.09125 3 32.53125 C8.28 32.53125 13.56 32.53125 19 32.53125 C19 27.25125 19 21.97125 19 16.53125 C13.72 16.53125 8.44 16.53125 3 16.53125 Z " fill="#000000" transform="translate(293,391.46875)"/>
<path d="M0 0 C0.87269531 -0.0038269 1.74539063 -0.00765381 2.64453125 -0.01159668 C4.48699092 -0.0143149 6.32948924 -0.00695994 8.171875 0.00976562 C10.99045934 0.03117752 13.80649485 0.00996199 16.625 -0.015625 C18.41667229 -0.01298171 20.20834299 -0.00785669 22 0 C22.84175781 -0.00809692 23.68351562 -0.01619385 24.55078125 -0.02453613 C28.13136419 0.03278396 30.39761762 0.18098442 33.52929688 2.00195312 C35.73374916 5.79314264 35.57275697 9.21617695 35.53125 13.53125 C35.5350769 14.40394531 35.53890381 15.27664063 35.54284668 16.17578125 C35.5455649 18.01824092 35.53820994 19.86073924 35.52148438 21.703125 C35.50007248 24.52170934 35.52128801 27.33774485 35.546875 30.15625 C35.54423171 31.94792229 35.53910669 33.73959299 35.53125 35.53125 C35.53934692 36.37300781 35.54744385 37.21476562 35.55578613 38.08203125 C35.49846604 41.66261419 35.35026558 43.92886762 33.52929688 47.06054688 C29.73810736 49.26499916 26.31507305 49.10400697 22 49.0625 C21.12730469 49.0663269 20.25460937 49.07015381 19.35546875 49.07409668 C17.51300908 49.0768149 15.67051076 49.06945994 13.828125 49.05273438 C11.00954066 49.03132248 8.19350515 49.05253801 5.375 49.078125 C3.58332771 49.07548171 1.79165701 49.07035669 0 49.0625 C-0.84175781 49.07059692 -1.68351562 49.07869385 -2.55078125 49.08703613 C-6.13136419 49.02971604 -8.39761762 48.88151558 -11.52929688 47.06054688 C-13.73374916 43.26935736 -13.57275697 39.84632305 -13.53125 35.53125 C-13.5350769 34.65855469 -13.53890381 33.78585937 -13.54284668 32.88671875 C-13.5455649 31.04425908 -13.53820994 29.20176076 -13.52148438 27.359375 C-13.50007248 24.54079066 -13.52128801 21.72475515 -13.546875 18.90625 C-13.54423171 17.11457771 -13.53910669 15.32290701 -13.53125 13.53125 C-13.53934692 12.68949219 -13.54744385 11.84773438 -13.55578613 10.98046875 C-13.49846604 7.39988581 -13.35026558 5.13363238 -11.52929688 2.00195312 C-7.73810736 -0.20249916 -4.31507305 -0.04150697 0 0 Z M3 16.53125 C3 21.81125 3 27.09125 3 32.53125 C8.28 32.53125 13.56 32.53125 19 32.53125 C19 27.25125 19 21.97125 19 16.53125 C13.72 16.53125 8.44 16.53125 3 16.53125 Z " fill="#000000" transform="translate(405,335.46875)"/>
<path d="M0 0 C0.87269531 -0.0038269 1.74539063 -0.00765381 2.64453125 -0.01159668 C4.48699092 -0.0143149 6.32948924 -0.00695994 8.171875 0.00976562 C10.99045934 0.03117752 13.80649485 0.00996199 16.625 -0.015625 C18.41667229 -0.01298171 20.20834299 -0.00785669 22 0 C22.84175781 -0.00809692 23.68351562 -0.01619385 24.55078125 -0.02453613 C28.13136419 0.03278396 30.39761762 0.18098442 33.52929688 2.00195312 C35.73374916 5.79314264 35.57275697 9.21617695 35.53125 13.53125 C35.5350769 14.40394531 35.53890381 15.27664063 35.54284668 16.17578125 C35.5455649 18.01824092 35.53820994 19.86073924 35.52148438 21.703125 C35.50007248 24.52170934 35.52128801 27.33774485 35.546875 30.15625 C35.54423171 31.94792229 35.53910669 33.73959299 35.53125 35.53125 C35.53934692 36.37300781 35.54744385 37.21476562 35.55578613 38.08203125 C35.49846604 41.66261419 35.35026558 43.92886762 33.52929688 47.06054688 C29.73810736 49.26499916 26.31507305 49.10400697 22 49.0625 C21.12730469 49.0663269 20.25460937 49.07015381 19.35546875 49.07409668 C17.51300908 49.0768149 15.67051076 49.06945994 13.828125 49.05273438 C11.00954066 49.03132248 8.19350515 49.05253801 5.375 49.078125 C3.58332771 49.07548171 1.79165701 49.07035669 0 49.0625 C-0.84175781 49.07059692 -1.68351562 49.07869385 -2.55078125 49.08703613 C-6.13136419 49.02971604 -8.39761762 48.88151558 -11.52929688 47.06054688 C-13.73374916 43.26935736 -13.57275697 39.84632305 -13.53125 35.53125 C-13.5350769 34.65855469 -13.53890381 33.78585937 -13.54284668 32.88671875 C-13.5455649 31.04425908 -13.53820994 29.20176076 -13.52148438 27.359375 C-13.50007248 24.54079066 -13.52128801 21.72475515 -13.546875 18.90625 C-13.54423171 17.11457771 -13.53910669 15.32290701 -13.53125 13.53125 C-13.53934692 12.68949219 -13.54744385 11.84773438 -13.55578613 10.98046875 C-13.49846604 7.39988581 -13.35026558 5.13363238 -11.52929688 2.00195312 C-7.73810736 -0.20249916 -4.31507305 -0.04150697 0 0 Z M3 16.53125 C3 21.81125 3 27.09125 3 32.53125 C8.28 32.53125 13.56 32.53125 19 32.53125 C19 27.25125 19 21.97125 19 16.53125 C13.72 16.53125 8.44 16.53125 3 16.53125 Z " fill="#000000" transform="translate(349,335.46875)"/>
<path d="M0 0 C0.87269531 -0.0038269 1.74539063 -0.00765381 2.64453125 -0.01159668 C4.48699092 -0.0143149 6.32948924 -0.00695994 8.171875 0.00976562 C10.99045934 0.03117752 13.80649485 0.00996199 16.625 -0.015625 C18.41667229 -0.01298171 20.20834299 -0.00785669 22 0 C22.84175781 -0.00809692 23.68351562 -0.01619385 24.55078125 -0.02453613 C28.13136419 0.03278396 30.39761762 0.18098442 33.52929688 2.00195312 C35.73374916 5.79314264 35.57275697 9.21617695 35.53125 13.53125 C35.5350769 14.40394531 35.53890381 15.27664063 35.54284668 16.17578125 C35.5455649 18.01824092 35.53820994 19.86073924 35.52148438 21.703125 C35.50007248 24.52170934 35.52128801 27.33774485 35.546875 30.15625 C35.54423171 31.94792229 35.53910669 33.73959299 35.53125 35.53125 C35.53934692 36.37300781 35.54744385 37.21476562 35.55578613 38.08203125 C35.49846604 41.66261419 35.35026558 43.92886762 33.52929688 47.06054688 C29.73810736 49.26499916 26.31507305 49.10400697 22 49.0625 C21.12730469 49.0663269 20.25460937 49.07015381 19.35546875 49.07409668 C17.51300908 49.0768149 15.67051076 49.06945994 13.828125 49.05273438 C11.00954066 49.03132248 8.19350515 49.05253801 5.375 49.078125 C3.58332771 49.07548171 1.79165701 49.07035669 0 49.0625 C-0.84175781 49.07059692 -1.68351562 49.07869385 -2.55078125 49.08703613 C-6.13136419 49.02971604 -8.39761762 48.88151558 -11.52929688 47.06054688 C-13.73374916 43.26935736 -13.57275697 39.84632305 -13.53125 35.53125 C-13.5350769 34.65855469 -13.53890381 33.78585937 -13.54284668 32.88671875 C-13.5455649 31.04425908 -13.53820994 29.20176076 -13.52148438 27.359375 C-13.50007248 24.54079066 -13.52128801 21.72475515 -13.546875 18.90625 C-13.54423171 17.11457771 -13.53910669 15.32290701 -13.53125 13.53125 C-13.53934692 12.68949219 -13.54744385 11.84773438 -13.55578613 10.98046875 C-13.49846604 7.39988581 -13.35026558 5.13363238 -11.52929688 2.00195312 C-7.73810736 -0.20249916 -4.31507305 -0.04150697 0 0 Z M3 16.53125 C3 21.81125 3 27.09125 3 32.53125 C8.28 32.53125 13.56 32.53125 19 32.53125 C19 27.25125 19 21.97125 19 16.53125 C13.72 16.53125 8.44 16.53125 3 16.53125 Z " fill="#000000" transform="translate(293,335.46875)"/>
<path d="M0 0 C0.87269531 -0.0038269 1.74539062 -0.00765381 2.64453125 -0.01159668 C4.48699092 -0.0143149 6.32948924 -0.00695994 8.171875 0.00976562 C10.99045934 0.03117752 13.80649485 0.00996199 16.625 -0.015625 C18.41667229 -0.01298171 20.20834299 -0.00785669 22 0 C22.84175781 -0.00809692 23.68351562 -0.01619385 24.55078125 -0.02453613 C28.13136419 0.03278396 30.39761762 0.18098442 33.52929688 2.00195312 C35.73374916 5.79314264 35.57275697 9.21617695 35.53125 13.53125 C35.5350769 14.40394531 35.53890381 15.27664063 35.54284668 16.17578125 C35.5455649 18.01824092 35.53820994 19.86073924 35.52148438 21.703125 C35.50007248 24.52170934 35.52128801 27.33774485 35.546875 30.15625 C35.54423171 31.94792229 35.53910669 33.73959299 35.53125 35.53125 C35.53934692 36.37300781 35.54744385 37.21476562 35.55578613 38.08203125 C35.49846604 41.66261419 35.35026558 43.92886762 33.52929688 47.06054688 C29.73810736 49.26499916 26.31507305 49.10400697 22 49.0625 C21.12730469 49.0663269 20.25460938 49.07015381 19.35546875 49.07409668 C17.51300908 49.0768149 15.67051076 49.06945994 13.828125 49.05273438 C11.00954066 49.03132248 8.19350515 49.05253801 5.375 49.078125 C3.58332771 49.07548171 1.79165701 49.07035669 0 49.0625 C-0.84175781 49.07059692 -1.68351563 49.07869385 -2.55078125 49.08703613 C-6.13136419 49.02971604 -8.39761762 48.88151558 -11.52929688 47.06054688 C-13.73374916 43.26935736 -13.57275697 39.84632305 -13.53125 35.53125 C-13.5350769 34.65855469 -13.53890381 33.78585937 -13.54284668 32.88671875 C-13.5455649 31.04425908 -13.53820994 29.20176076 -13.52148438 27.359375 C-13.50007248 24.54079066 -13.52128801 21.72475515 -13.546875 18.90625 C-13.54423171 17.11457771 -13.53910669 15.32290701 -13.53125 13.53125 C-13.53934692 12.68949219 -13.54744385 11.84773438 -13.55578613 10.98046875 C-13.49846604 7.39988581 -13.35026558 5.13363238 -11.52929688 2.00195312 C-7.73810736 -0.20249916 -4.31507305 -0.04150697 0 0 Z M3 16.53125 C3 21.81125 3 27.09125 3 32.53125 C8.28 32.53125 13.56 32.53125 19 32.53125 C19 27.25125 19 21.97125 19 16.53125 C13.72 16.53125 8.44 16.53125 3 16.53125 Z " fill="#000000" transform="translate(197,335.46875)"/>
<path d="M0 0 C0.87269531 -0.0038269 1.74539062 -0.00765381 2.64453125 -0.01159668 C4.48699092 -0.0143149 6.32948924 -0.00695994 8.171875 0.00976562 C10.99045934 0.03117752 13.80649485 0.00996199 16.625 -0.015625 C18.41667229 -0.01298171 20.20834299 -0.00785669 22 0 C22.84175781 -0.00809692 23.68351562 -0.01619385 24.55078125 -0.02453613 C28.13136419 0.03278396 30.39761762 0.18098442 33.52929688 2.00195312 C35.73374916 5.79314264 35.57275697 9.21617695 35.53125 13.53125 C35.5350769 14.40394531 35.53890381 15.27664063 35.54284668 16.17578125 C35.5455649 18.01824092 35.53820994 19.86073924 35.52148438 21.703125 C35.50007248 24.52170934 35.52128801 27.33774485 35.546875 30.15625 C35.54423171 31.94792229 35.53910669 33.73959299 35.53125 35.53125 C35.53934692 36.37300781 35.54744385 37.21476562 35.55578613 38.08203125 C35.49846604 41.66261419 35.35026558 43.92886762 33.52929688 47.06054688 C29.73810736 49.26499916 26.31507305 49.10400697 22 49.0625 C21.12730469 49.0663269 20.25460938 49.07015381 19.35546875 49.07409668 C17.51300908 49.0768149 15.67051076 49.06945994 13.828125 49.05273438 C11.00954066 49.03132248 8.19350515 49.05253801 5.375 49.078125 C3.58332771 49.07548171 1.79165701 49.07035669 0 49.0625 C-0.84175781 49.07059692 -1.68351563 49.07869385 -2.55078125 49.08703613 C-6.13136419 49.02971604 -8.39761762 48.88151558 -11.52929688 47.06054688 C-13.73374916 43.26935736 -13.57275697 39.84632305 -13.53125 35.53125 C-13.5350769 34.65855469 -13.53890381 33.78585937 -13.54284668 32.88671875 C-13.5455649 31.04425908 -13.53820994 29.20176076 -13.52148438 27.359375 C-13.50007248 24.54079066 -13.52128801 21.72475515 -13.546875 18.90625 C-13.54423171 17.11457771 -13.53910669 15.32290701 -13.53125 13.53125 C-13.53934692 12.68949219 -13.54744385 11.84773438 -13.55578613 10.98046875 C-13.49846604 7.39988581 -13.35026558 5.13363238 -11.52929688 2.00195312 C-7.73810736 -0.20249916 -4.31507305 -0.04150697 0 0 Z M3 16.53125 C3 21.81125 3 27.09125 3 32.53125 C8.28 32.53125 13.56 32.53125 19 32.53125 C19 27.25125 19 21.97125 19 16.53125 C13.72 16.53125 8.44 16.53125 3 16.53125 Z " fill="#000000" transform="translate(141,335.46875)"/>
<path d="M0 0 C0.87269531 -0.0038269 1.74539062 -0.00765381 2.64453125 -0.01159668 C4.48699092 -0.0143149 6.32948924 -0.00695994 8.171875 0.00976562 C10.99045934 0.03117752 13.80649485 0.00996199 16.625 -0.015625 C18.41667229 -0.01298171 20.20834299 -0.00785669 22 0 C22.84175781 -0.00809692 23.68351562 -0.01619385 24.55078125 -0.02453613 C28.13136419 0.03278396 30.39761762 0.18098442 33.52929688 2.00195312 C35.73374916 5.79314264 35.57275697 9.21617695 35.53125 13.53125 C35.5350769 14.40394531 35.53890381 15.27664063 35.54284668 16.17578125 C35.5455649 18.01824092 35.53820994 19.86073924 35.52148438 21.703125 C35.50007248 24.52170934 35.52128801 27.33774485 35.546875 30.15625 C35.54423171 31.94792229 35.53910669 33.73959299 35.53125 35.53125 C35.53934692 36.37300781 35.54744385 37.21476562 35.55578613 38.08203125 C35.49846604 41.66261419 35.35026558 43.92886762 33.52929688 47.06054688 C29.73810736 49.26499916 26.31507305 49.10400697 22 49.0625 C21.12730469 49.0663269 20.25460938 49.07015381 19.35546875 49.07409668 C17.51300908 49.0768149 15.67051076 49.06945994 13.828125 49.05273438 C11.00954066 49.03132248 8.19350515 49.05253801 5.375 49.078125 C3.58332771 49.07548171 1.79165701 49.07035669 0 49.0625 C-0.84175781 49.07059692 -1.68351562 49.07869385 -2.55078125 49.08703613 C-6.13136419 49.02971604 -8.39761762 48.88151558 -11.52929688 47.06054688 C-13.73374916 43.26935736 -13.57275697 39.84632305 -13.53125 35.53125 C-13.5350769 34.65855469 -13.53890381 33.78585937 -13.54284668 32.88671875 C-13.5455649 31.04425908 -13.53820994 29.20176076 -13.52148438 27.359375 C-13.50007248 24.54079066 -13.52128801 21.72475515 -13.546875 18.90625 C-13.54423171 17.11457771 -13.53910669 15.32290701 -13.53125 13.53125 C-13.53934692 12.68949219 -13.54744385 11.84773438 -13.55578613 10.98046875 C-13.49846604 7.39988581 -13.35026558 5.13363238 -11.52929688 2.00195312 C-7.73810736 -0.20249916 -4.31507305 -0.04150697 0 0 Z M3 16.53125 C3 21.81125 3 27.09125 3 32.53125 C8.28 32.53125 13.56 32.53125 19 32.53125 C19 27.25125 19 21.97125 19 16.53125 C13.72 16.53125 8.44 16.53125 3 16.53125 Z " fill="#000000" transform="translate(85,335.46875)"/>
<path d="M0 0 C0.87269531 -0.0038269 1.74539063 -0.00765381 2.64453125 -0.01159668 C4.48699092 -0.0143149 6.32948924 -0.00695994 8.171875 0.00976562 C10.99045934 0.03117752 13.80649485 0.00996199 16.625 -0.015625 C18.41667229 -0.01298171 20.20834299 -0.00785669 22 0 C22.84175781 -0.00809692 23.68351562 -0.01619385 24.55078125 -0.02453613 C28.13136419 0.03278396 30.39761762 0.18098442 33.52929688 2.00195312 C35.73374916 5.79314264 35.57275697 9.21617695 35.53125 13.53125 C35.5350769 14.40394531 35.53890381 15.27664063 35.54284668 16.17578125 C35.5455649 18.01824092 35.53820994 19.86073924 35.52148438 21.703125 C35.50007248 24.52170934 35.52128801 27.33774485 35.546875 30.15625 C35.54423171 31.94792229 35.53910669 33.73959299 35.53125 35.53125 C35.53934692 36.37300781 35.54744385 37.21476562 35.55578613 38.08203125 C35.49846604 41.66261419 35.35026558 43.92886762 33.52929688 47.06054688 C29.73810736 49.26499916 26.31507305 49.10400697 22 49.0625 C21.12730469 49.0663269 20.25460937 49.07015381 19.35546875 49.07409668 C17.51300908 49.0768149 15.67051076 49.06945994 13.828125 49.05273438 C11.00954066 49.03132248 8.19350515 49.05253801 5.375 49.078125 C3.58332771 49.07548171 1.79165701 49.07035669 0 49.0625 C-0.84175781 49.07059692 -1.68351562 49.07869385 -2.55078125 49.08703613 C-6.13136419 49.02971604 -8.39761762 48.88151558 -11.52929688 47.06054688 C-13.73374916 43.26935736 -13.57275697 39.84632305 -13.53125 35.53125 C-13.5350769 34.65855469 -13.53890381 33.78585937 -13.54284668 32.88671875 C-13.5455649 31.04425908 -13.53820994 29.20176076 -13.52148438 27.359375 C-13.50007248 24.54079066 -13.52128801 21.72475515 -13.546875 18.90625 C-13.54423171 17.11457771 -13.53910669 15.32290701 -13.53125 13.53125 C-13.53934692 12.68949219 -13.54744385 11.84773438 -13.55578613 10.98046875 C-13.49846604 7.39988581 -13.35026558 5.13363238 -11.52929688 2.00195312 C-7.73810736 -0.20249916 -4.31507305 -0.04150697 0 0 Z M3 16.53125 C3 21.81125 3 27.09125 3 32.53125 C8.28 32.53125 13.56 32.53125 19 32.53125 C19 27.25125 19 21.97125 19 16.53125 C13.72 16.53125 8.44 16.53125 3 16.53125 Z " fill="#000000" transform="translate(405,279.46875)"/>
<path d="M0 0 C0.87269531 -0.0038269 1.74539063 -0.00765381 2.64453125 -0.01159668 C4.48699092 -0.0143149 6.32948924 -0.00695994 8.171875 0.00976562 C10.99045934 0.03117752 13.80649485 0.00996199 16.625 -0.015625 C18.41667229 -0.01298171 20.20834299 -0.00785669 22 0 C22.84175781 -0.00809692 23.68351562 -0.01619385 24.55078125 -0.02453613 C28.13136419 0.03278396 30.39761762 0.18098442 33.52929688 2.00195312 C35.73374916 5.79314264 35.57275697 9.21617695 35.53125 13.53125 C35.5350769 14.40394531 35.53890381 15.27664063 35.54284668 16.17578125 C35.5455649 18.01824092 35.53820994 19.86073924 35.52148438 21.703125 C35.50007248 24.52170934 35.52128801 27.33774485 35.546875 30.15625 C35.54423171 31.94792229 35.53910669 33.73959299 35.53125 35.53125 C35.53934692 36.37300781 35.54744385 37.21476562 35.55578613 38.08203125 C35.49846604 41.66261419 35.35026558 43.92886762 33.52929688 47.06054688 C29.73810736 49.26499916 26.31507305 49.10400697 22 49.0625 C21.12730469 49.0663269 20.25460937 49.07015381 19.35546875 49.07409668 C17.51300908 49.0768149 15.67051076 49.06945994 13.828125 49.05273438 C11.00954066 49.03132248 8.19350515 49.05253801 5.375 49.078125 C3.58332771 49.07548171 1.79165701 49.07035669 0 49.0625 C-0.84175781 49.07059692 -1.68351562 49.07869385 -2.55078125 49.08703613 C-6.13136419 49.02971604 -8.39761762 48.88151558 -11.52929688 47.06054688 C-13.73374916 43.26935736 -13.57275697 39.84632305 -13.53125 35.53125 C-13.5350769 34.65855469 -13.53890381 33.78585937 -13.54284668 32.88671875 C-13.5455649 31.04425908 -13.53820994 29.20176076 -13.52148438 27.359375 C-13.50007248 24.54079066 -13.52128801 21.72475515 -13.546875 18.90625 C-13.54423171 17.11457771 -13.53910669 15.32290701 -13.53125 13.53125 C-13.53934692 12.68949219 -13.54744385 11.84773438 -13.55578613 10.98046875 C-13.49846604 7.39988581 -13.35026558 5.13363238 -11.52929688 2.00195312 C-7.73810736 -0.20249916 -4.31507305 -0.04150697 0 0 Z M3 16.53125 C3 21.81125 3 27.09125 3 32.53125 C8.28 32.53125 13.56 32.53125 19 32.53125 C19 27.25125 19 21.97125 19 16.53125 C13.72 16.53125 8.44 16.53125 3 16.53125 Z " fill="#000000" transform="translate(349,279.46875)"/>
<path d="M0 0 C0.87269531 -0.0038269 1.74539063 -0.00765381 2.64453125 -0.01159668 C4.48699092 -0.0143149 6.32948924 -0.00695994 8.171875 0.00976562 C10.99045934 0.03117752 13.80649485 0.00996199 16.625 -0.015625 C18.41667229 -0.01298171 20.20834299 -0.00785669 22 0 C22.84175781 -0.00809692 23.68351562 -0.01619385 24.55078125 -0.02453613 C28.13136419 0.03278396 30.39761762 0.18098442 33.52929688 2.00195312 C35.73374916 5.79314264 35.57275697 9.21617695 35.53125 13.53125 C35.5350769 14.40394531 35.53890381 15.27664063 35.54284668 16.17578125 C35.5455649 18.01824092 35.53820994 19.86073924 35.52148438 21.703125 C35.50007248 24.52170934 35.52128801 27.33774485 35.546875 30.15625 C35.54423171 31.94792229 35.53910669 33.73959299 35.53125 35.53125 C35.53934692 36.37300781 35.54744385 37.21476562 35.55578613 38.08203125 C35.49846604 41.66261419 35.35026558 43.92886762 33.52929688 47.06054688 C29.73810736 49.26499916 26.31507305 49.10400697 22 49.0625 C21.12730469 49.0663269 20.25460937 49.07015381 19.35546875 49.07409668 C17.51300908 49.0768149 15.67051076 49.06945994 13.828125 49.05273438 C11.00954066 49.03132248 8.19350515 49.05253801 5.375 49.078125 C3.58332771 49.07548171 1.79165701 49.07035669 0 49.0625 C-0.84175781 49.07059692 -1.68351562 49.07869385 -2.55078125 49.08703613 C-6.13136419 49.02971604 -8.39761762 48.88151558 -11.52929688 47.06054688 C-13.73374916 43.26935736 -13.57275697 39.84632305 -13.53125 35.53125 C-13.5350769 34.65855469 -13.53890381 33.78585937 -13.54284668 32.88671875 C-13.5455649 31.04425908 -13.53820994 29.20176076 -13.52148438 27.359375 C-13.50007248 24.54079066 -13.52128801 21.72475515 -13.546875 18.90625 C-13.54423171 17.11457771 -13.53910669 15.32290701 -13.53125 13.53125 C-13.53934692 12.68949219 -13.54744385 11.84773438 -13.55578613 10.98046875 C-13.49846604 7.39988581 -13.35026558 5.13363238 -11.52929688 2.00195312 C-7.73810736 -0.20249916 -4.31507305 -0.04150697 0 0 Z M3 16.53125 C3 21.81125 3 27.09125 3 32.53125 C8.28 32.53125 13.56 32.53125 19 32.53125 C19 27.25125 19 21.97125 19 16.53125 C13.72 16.53125 8.44 16.53125 3 16.53125 Z " fill="#000000" transform="translate(293,279.46875)"/>
<path d="M0 0 C0.87269531 -0.0038269 1.74539062 -0.00765381 2.64453125 -0.01159668 C4.48699092 -0.0143149 6.32948924 -0.00695994 8.171875 0.00976562 C10.99045934 0.03117752 13.80649485 0.00996199 16.625 -0.015625 C18.41667229 -0.01298171 20.20834299 -0.00785669 22 0 C22.84175781 -0.00809692 23.68351562 -0.01619385 24.55078125 -0.02453613 C28.13136419 0.03278396 30.39761762 0.18098442 33.52929688 2.00195312 C35.73374916 5.79314264 35.57275697 9.21617695 35.53125 13.53125 C35.5350769 14.40394531 35.53890381 15.27664063 35.54284668 16.17578125 C35.5455649 18.01824092 35.53820994 19.86073924 35.52148438 21.703125 C35.50007248 24.52170934 35.52128801 27.33774485 35.546875 30.15625 C35.54423171 31.94792229 35.53910669 33.73959299 35.53125 35.53125 C35.53934692 36.37300781 35.54744385 37.21476562 35.55578613 38.08203125 C35.49846604 41.66261419 35.35026558 43.92886762 33.52929688 47.06054688 C29.73810736 49.26499916 26.31507305 49.10400697 22 49.0625 C21.12730469 49.0663269 20.25460938 49.07015381 19.35546875 49.07409668 C17.51300908 49.0768149 15.67051076 49.06945994 13.828125 49.05273438 C11.00954066 49.03132248 8.19350515 49.05253801 5.375 49.078125 C3.58332771 49.07548171 1.79165701 49.07035669 0 49.0625 C-0.84175781 49.07059692 -1.68351563 49.07869385 -2.55078125 49.08703613 C-6.13136419 49.02971604 -8.39761762 48.88151558 -11.52929688 47.06054688 C-13.73374916 43.26935736 -13.57275697 39.84632305 -13.53125 35.53125 C-13.5350769 34.65855469 -13.53890381 33.78585937 -13.54284668 32.88671875 C-13.5455649 31.04425908 -13.53820994 29.20176076 -13.52148438 27.359375 C-13.50007248 24.54079066 -13.52128801 21.72475515 -13.546875 18.90625 C-13.54423171 17.11457771 -13.53910669 15.32290701 -13.53125 13.53125 C-13.53934692 12.68949219 -13.54744385 11.84773438 -13.55578613 10.98046875 C-13.49846604 7.39988581 -13.35026558 5.13363238 -11.52929688 2.00195312 C-7.73810736 -0.20249916 -4.31507305 -0.04150697 0 0 Z M3 16.53125 C3 21.81125 3 27.09125 3 32.53125 C8.28 32.53125 13.56 32.53125 19 32.53125 C19 27.25125 19 21.97125 19 16.53125 C13.72 16.53125 8.44 16.53125 3 16.53125 Z " fill="#000000" transform="translate(197,279.46875)"/>
<path d="M0 0 C0.87269531 -0.0038269 1.74539062 -0.00765381 2.64453125 -0.01159668 C4.48699092 -0.0143149 6.32948924 -0.00695994 8.171875 0.00976562 C10.99045934 0.03117752 13.80649485 0.00996199 16.625 -0.015625 C18.41667229 -0.01298171 20.20834299 -0.00785669 22 0 C22.84175781 -0.00809692 23.68351562 -0.01619385 24.55078125 -0.02453613 C28.13136419 0.03278396 30.39761762 0.18098442 33.52929688 2.00195312 C35.73374916 5.79314264 35.57275697 9.21617695 35.53125 13.53125 C35.5350769 14.40394531 35.53890381 15.27664063 35.54284668 16.17578125 C35.5455649 18.01824092 35.53820994 19.86073924 35.52148438 21.703125 C35.50007248 24.52170934 35.52128801 27.33774485 35.546875 30.15625 C35.54423171 31.94792229 35.53910669 33.73959299 35.53125 35.53125 C35.53934692 36.37300781 35.54744385 37.21476562 35.55578613 38.08203125 C35.49846604 41.66261419 35.35026558 43.92886762 33.52929688 47.06054688 C29.73810736 49.26499916 26.31507305 49.10400697 22 49.0625 C21.12730469 49.0663269 20.25460938 49.07015381 19.35546875 49.07409668 C17.51300908 49.0768149 15.67051076 49.06945994 13.828125 49.05273438 C11.00954066 49.03132248 8.19350515 49.05253801 5.375 49.078125 C3.58332771 49.07548171 1.79165701 49.07035669 0 49.0625 C-0.84175781 49.07059692 -1.68351563 49.07869385 -2.55078125 49.08703613 C-6.13136419 49.02971604 -8.39761762 48.88151558 -11.52929688 47.06054688 C-13.73374916 43.26935736 -13.57275697 39.84632305 -13.53125 35.53125 C-13.5350769 34.65855469 -13.53890381 33.78585937 -13.54284668 32.88671875 C-13.5455649 31.04425908 -13.53820994 29.20176076 -13.52148438 27.359375 C-13.50007248 24.54079066 -13.52128801 21.72475515 -13.546875 18.90625 C-13.54423171 17.11457771 -13.53910669 15.32290701 -13.53125 13.53125 C-13.53934692 12.68949219 -13.54744385 11.84773438 -13.55578613 10.98046875 C-13.49846604 7.39988581 -13.35026558 5.13363238 -11.52929688 2.00195312 C-7.73810736 -0.20249916 -4.31507305 -0.04150697 0 0 Z M3 16.53125 C3 21.81125 3 27.09125 3 32.53125 C8.28 32.53125 13.56 32.53125 19 32.53125 C19 27.25125 19 21.97125 19 16.53125 C13.72 16.53125 8.44 16.53125 3 16.53125 Z " fill="#000000" transform="translate(141,279.46875)"/>
<path d="M0 0 C0.87269531 -0.0038269 1.74539062 -0.00765381 2.64453125 -0.01159668 C4.48699092 -0.0143149 6.32948924 -0.00695994 8.171875 0.00976562 C10.99045934 0.03117752 13.80649485 0.00996199 16.625 -0.015625 C18.41667229 -0.01298171 20.20834299 -0.00785669 22 0 C22.84175781 -0.00809692 23.68351562 -0.01619385 24.55078125 -0.02453613 C28.13136419 0.03278396 30.39761762 0.18098442 33.52929688 2.00195312 C35.73374916 5.79314264 35.57275697 9.21617695 35.53125 13.53125 C35.5350769 14.40394531 35.53890381 15.27664063 35.54284668 16.17578125 C35.5455649 18.01824092 35.53820994 19.86073924 35.52148438 21.703125 C35.50007248 24.52170934 35.52128801 27.33774485 35.546875 30.15625 C35.54423171 31.94792229 35.53910669 33.73959299 35.53125 35.53125 C35.53934692 36.37300781 35.54744385 37.21476562 35.55578613 38.08203125 C35.49846604 41.66261419 35.35026558 43.92886762 33.52929688 47.06054688 C29.73810736 49.26499916 26.31507305 49.10400697 22 49.0625 C21.12730469 49.0663269 20.25460938 49.07015381 19.35546875 49.07409668 C17.51300908 49.0768149 15.67051076 49.06945994 13.828125 49.05273438 C11.00954066 49.03132248 8.19350515 49.05253801 5.375 49.078125 C3.58332771 49.07548171 1.79165701 49.07035669 0 49.0625 C-0.84175781 49.07059692 -1.68351562 49.07869385 -2.55078125 49.08703613 C-6.13136419 49.02971604 -8.39761762 48.88151558 -11.52929688 47.06054688 C-13.73374916 43.26935736 -13.57275697 39.84632305 -13.53125 35.53125 C-13.5350769 34.65855469 -13.53890381 33.78585937 -13.54284668 32.88671875 C-13.5455649 31.04425908 -13.53820994 29.20176076 -13.52148438 27.359375 C-13.50007248 24.54079066 -13.52128801 21.72475515 -13.546875 18.90625 C-13.54423171 17.11457771 -13.53910669 15.32290701 -13.53125 13.53125 C-13.53934692 12.68949219 -13.54744385 11.84773438 -13.55578613 10.98046875 C-13.49846604 7.39988581 -13.35026558 5.13363238 -11.52929688 2.00195312 C-7.73810736 -0.20249916 -4.31507305 -0.04150697 0 0 Z M3 16.53125 C3 21.81125 3 27.09125 3 32.53125 C8.28 32.53125 13.56 32.53125 19 32.53125 C19 27.25125 19 21.97125 19 16.53125 C13.72 16.53125 8.44 16.53125 3 16.53125 Z " fill="#000000" transform="translate(85,279.46875)"/>
<path d="M0 0 C0.87269531 -0.0038269 1.74539062 -0.00765381 2.64453125 -0.01159668 C4.48699092 -0.0143149 6.32948924 -0.00695994 8.171875 0.00976562 C10.99045934 0.03117752 13.80649485 0.00996199 16.625 -0.015625 C18.41667229 -0.01298171 20.20834299 -0.00785669 22 0 C22.84175781 -0.00809692 23.68351562 -0.01619385 24.55078125 -0.02453613 C28.13136419 0.03278396 30.39761762 0.18098442 33.52929688 2.00195312 C35.73374916 5.79314264 35.57275697 9.21617695 35.53125 13.53125 C35.5350769 14.40394531 35.53890381 15.27664062 35.54284668 16.17578125 C35.5455649 18.01824092 35.53820994 19.86073924 35.52148438 21.703125 C35.50007248 24.52170934 35.52128801 27.33774485 35.546875 30.15625 C35.54423171 31.94792229 35.53910669 33.73959299 35.53125 35.53125 C35.53934692 36.37300781 35.54744385 37.21476562 35.55578613 38.08203125 C35.49846604 41.66261419 35.35026558 43.92886762 33.52929688 47.06054688 C29.73810736 49.26499916 26.31507305 49.10400697 22 49.0625 C21.12730469 49.0663269 20.25460938 49.07015381 19.35546875 49.07409668 C17.51300908 49.0768149 15.67051076 49.06945994 13.828125 49.05273438 C11.00954066 49.03132248 8.19350515 49.05253801 5.375 49.078125 C3.58332771 49.07548171 1.79165701 49.07035669 0 49.0625 C-0.84175781 49.07059692 -1.68351563 49.07869385 -2.55078125 49.08703613 C-6.13136419 49.02971604 -8.39761762 48.88151558 -11.52929688 47.06054688 C-13.73374916 43.26935736 -13.57275697 39.84632305 -13.53125 35.53125 C-13.5350769 34.65855469 -13.53890381 33.78585937 -13.54284668 32.88671875 C-13.5455649 31.04425908 -13.53820994 29.20176076 -13.52148438 27.359375 C-13.50007248 24.54079066 -13.52128801 21.72475515 -13.546875 18.90625 C-13.54423171 17.11457771 -13.53910669 15.32290701 -13.53125 13.53125 C-13.53934692 12.68949219 -13.54744385 11.84773437 -13.55578613 10.98046875 C-13.49846604 7.39988581 -13.35026558 5.13363238 -11.52929688 2.00195312 C-7.73810736 -0.20249916 -4.31507305 -0.04150697 0 0 Z M3 16.53125 C3 21.81125 3 27.09125 3 32.53125 C8.28 32.53125 13.56 32.53125 19 32.53125 C19 27.25125 19 21.97125 19 16.53125 C13.72 16.53125 8.44 16.53125 3 16.53125 Z " fill="#000000" transform="translate(197,223.46875)"/>
<path d="M0 0 C0.87269531 -0.0038269 1.74539062 -0.00765381 2.64453125 -0.01159668 C4.48699092 -0.0143149 6.32948924 -0.00695994 8.171875 0.00976562 C10.99045934 0.03117752 13.80649485 0.00996199 16.625 -0.015625 C18.41667229 -0.01298171 20.20834299 -0.00785669 22 0 C22.84175781 -0.00809692 23.68351562 -0.01619385 24.55078125 -0.02453613 C28.13136419 0.03278396 30.39761762 0.18098442 33.52929688 2.00195312 C35.73374916 5.79314264 35.57275697 9.21617695 35.53125 13.53125 C35.5350769 14.40394531 35.53890381 15.27664062 35.54284668 16.17578125 C35.5455649 18.01824092 35.53820994 19.86073924 35.52148438 21.703125 C35.50007248 24.52170934 35.52128801 27.33774485 35.546875 30.15625 C35.54423171 31.94792229 35.53910669 33.73959299 35.53125 35.53125 C35.53934692 36.37300781 35.54744385 37.21476562 35.55578613 38.08203125 C35.49846604 41.66261419 35.35026558 43.92886762 33.52929688 47.06054688 C29.73810736 49.26499916 26.31507305 49.10400697 22 49.0625 C21.12730469 49.0663269 20.25460938 49.07015381 19.35546875 49.07409668 C17.51300908 49.0768149 15.67051076 49.06945994 13.828125 49.05273438 C11.00954066 49.03132248 8.19350515 49.05253801 5.375 49.078125 C3.58332771 49.07548171 1.79165701 49.07035669 0 49.0625 C-0.84175781 49.07059692 -1.68351563 49.07869385 -2.55078125 49.08703613 C-6.13136419 49.02971604 -8.39761762 48.88151558 -11.52929688 47.06054688 C-13.73374916 43.26935736 -13.57275697 39.84632305 -13.53125 35.53125 C-13.5350769 34.65855469 -13.53890381 33.78585937 -13.54284668 32.88671875 C-13.5455649 31.04425908 -13.53820994 29.20176076 -13.52148438 27.359375 C-13.50007248 24.54079066 -13.52128801 21.72475515 -13.546875 18.90625 C-13.54423171 17.11457771 -13.53910669 15.32290701 -13.53125 13.53125 C-13.53934692 12.68949219 -13.54744385 11.84773437 -13.55578613 10.98046875 C-13.49846604 7.39988581 -13.35026558 5.13363238 -11.52929688 2.00195312 C-7.73810736 -0.20249916 -4.31507305 -0.04150697 0 0 Z M3 16.53125 C3 21.81125 3 27.09125 3 32.53125 C8.28 32.53125 13.56 32.53125 19 32.53125 C19 27.25125 19 21.97125 19 16.53125 C13.72 16.53125 8.44 16.53125 3 16.53125 Z " fill="#000000" transform="translate(141,223.46875)"/>
<path d="M0 0 C0.87269531 -0.0038269 1.74539062 -0.00765381 2.64453125 -0.01159668 C4.48699092 -0.0143149 6.32948924 -0.00695994 8.171875 0.00976562 C10.99045934 0.03117752 13.80649485 0.00996199 16.625 -0.015625 C18.41667229 -0.01298171 20.20834299 -0.00785669 22 0 C22.84175781 -0.00809692 23.68351562 -0.01619385 24.55078125 -0.02453613 C28.13136419 0.03278396 30.39761762 0.18098442 33.52929688 2.00195312 C35.73374916 5.79314264 35.57275697 9.21617695 35.53125 13.53125 C35.5350769 14.40394531 35.53890381 15.27664062 35.54284668 16.17578125 C35.5455649 18.01824092 35.53820994 19.86073924 35.52148438 21.703125 C35.50007248 24.52170934 35.52128801 27.33774485 35.546875 30.15625 C35.54423171 31.94792229 35.53910669 33.73959299 35.53125 35.53125 C35.53934692 36.37300781 35.54744385 37.21476562 35.55578613 38.08203125 C35.49846604 41.66261419 35.35026558 43.92886762 33.52929688 47.06054688 C29.73810736 49.26499916 26.31507305 49.10400697 22 49.0625 C21.12730469 49.0663269 20.25460938 49.07015381 19.35546875 49.07409668 C17.51300908 49.0768149 15.67051076 49.06945994 13.828125 49.05273438 C11.00954066 49.03132248 8.19350515 49.05253801 5.375 49.078125 C3.58332771 49.07548171 1.79165701 49.07035669 0 49.0625 C-0.84175781 49.07059692 -1.68351562 49.07869385 -2.55078125 49.08703613 C-6.13136419 49.02971604 -8.39761762 48.88151558 -11.52929688 47.06054688 C-13.73374916 43.26935736 -13.57275697 39.84632305 -13.53125 35.53125 C-13.5350769 34.65855469 -13.53890381 33.78585937 -13.54284668 32.88671875 C-13.5455649 31.04425908 -13.53820994 29.20176076 -13.52148438 27.359375 C-13.50007248 24.54079066 -13.52128801 21.72475515 -13.546875 18.90625 C-13.54423171 17.11457771 -13.53910669 15.32290701 -13.53125 13.53125 C-13.53934692 12.68949219 -13.54744385 11.84773437 -13.55578613 10.98046875 C-13.49846604 7.39988581 -13.35026558 5.13363238 -11.52929688 2.00195312 C-7.73810736 -0.20249916 -4.31507305 -0.04150697 0 0 Z M3 16.53125 C3 21.81125 3 27.09125 3 32.53125 C8.28 32.53125 13.56 32.53125 19 32.53125 C19 27.25125 19 21.97125 19 16.53125 C13.72 16.53125 8.44 16.53125 3 16.53125 Z " fill="#000000" transform="translate(85,223.46875)"/>
<path d="M0 0 C0.87269531 -0.0038269 1.74539062 -0.00765381 2.64453125 -0.01159668 C4.48699092 -0.0143149 6.32948924 -0.00695994 8.171875 0.00976562 C10.99045934 0.03117752 13.80649485 0.00996199 16.625 -0.015625 C18.41667229 -0.01298171 20.20834299 -0.00785669 22 0 C22.84175781 -0.00809692 23.68351562 -0.01619385 24.55078125 -0.02453613 C28.13136419 0.03278396 30.39761762 0.18098442 33.52929688 2.00195312 C35.73374916 5.79314264 35.57275697 9.21617695 35.53125 13.53125 C35.5350769 14.40394531 35.53890381 15.27664062 35.54284668 16.17578125 C35.5455649 18.01824092 35.53820994 19.86073924 35.52148438 21.703125 C35.50007248 24.52170934 35.52128801 27.33774485 35.546875 30.15625 C35.54423171 31.94792229 35.53910669 33.73959299 35.53125 35.53125 C35.53934692 36.37300781 35.54744385 37.21476562 35.55578613 38.08203125 C35.49846604 41.66261419 35.35026558 43.92886762 33.52929688 47.06054688 C29.73810736 49.26499916 26.31507305 49.10400697 22 49.0625 C21.12730469 49.0663269 20.25460938 49.07015381 19.35546875 49.07409668 C17.51300908 49.0768149 15.67051076 49.06945994 13.828125 49.05273438 C11.00954066 49.03132248 8.19350515 49.05253801 5.375 49.078125 C3.58332771 49.07548171 1.79165701 49.07035669 0 49.0625 C-0.84175781 49.07059692 -1.68351563 49.07869385 -2.55078125 49.08703613 C-6.13136419 49.02971604 -8.39761762 48.88151558 -11.52929688 47.06054688 C-13.73374916 43.26935736 -13.57275697 39.84632305 -13.53125 35.53125 C-13.5350769 34.65855469 -13.53890381 33.78585938 -13.54284668 32.88671875 C-13.5455649 31.04425908 -13.53820994 29.20176076 -13.52148438 27.359375 C-13.50007248 24.54079066 -13.52128801 21.72475515 -13.546875 18.90625 C-13.54423171 17.11457771 -13.53910669 15.32290701 -13.53125 13.53125 C-13.53934692 12.68949219 -13.54744385 11.84773437 -13.55578613 10.98046875 C-13.49846604 7.39988581 -13.35026558 5.13363238 -11.52929688 2.00195312 C-7.73810736 -0.20249916 -4.31507305 -0.04150697 0 0 Z M3 16.53125 C3 21.81125 3 27.09125 3 32.53125 C8.28 32.53125 13.56 32.53125 19 32.53125 C19 27.25125 19 21.97125 19 16.53125 C13.72 16.53125 8.44 16.53125 3 16.53125 Z " fill="#000000" transform="translate(197,167.46875)"/>
<path d="M0 0 C0.87269531 -0.0038269 1.74539062 -0.00765381 2.64453125 -0.01159668 C4.48699092 -0.0143149 6.32948924 -0.00695994 8.171875 0.00976562 C10.99045934 0.03117752 13.80649485 0.00996199 16.625 -0.015625 C18.41667229 -0.01298171 20.20834299 -0.00785669 22 0 C22.84175781 -0.00809692 23.68351562 -0.01619385 24.55078125 -0.02453613 C28.13136419 0.03278396 30.39761762 0.18098442 33.52929688 2.00195312 C35.73374916 5.79314264 35.57275697 9.21617695 35.53125 13.53125 C35.5350769 14.40394531 35.53890381 15.27664062 35.54284668 16.17578125 C35.5455649 18.01824092 35.53820994 19.86073924 35.52148438 21.703125 C35.50007248 24.52170934 35.52128801 27.33774485 35.546875 30.15625 C35.54423171 31.94792229 35.53910669 33.73959299 35.53125 35.53125 C35.53934692 36.37300781 35.54744385 37.21476562 35.55578613 38.08203125 C35.49846604 41.66261419 35.35026558 43.92886762 33.52929688 47.06054688 C29.73810736 49.26499916 26.31507305 49.10400697 22 49.0625 C21.12730469 49.0663269 20.25460938 49.07015381 19.35546875 49.07409668 C17.51300908 49.0768149 15.67051076 49.06945994 13.828125 49.05273438 C11.00954066 49.03132248 8.19350515 49.05253801 5.375 49.078125 C3.58332771 49.07548171 1.79165701 49.07035669 0 49.0625 C-0.84175781 49.07059692 -1.68351563 49.07869385 -2.55078125 49.08703613 C-6.13136419 49.02971604 -8.39761762 48.88151558 -11.52929688 47.06054688 C-13.73374916 43.26935736 -13.57275697 39.84632305 -13.53125 35.53125 C-13.5350769 34.65855469 -13.53890381 33.78585938 -13.54284668 32.88671875 C-13.5455649 31.04425908 -13.53820994 29.20176076 -13.52148438 27.359375 C-13.50007248 24.54079066 -13.52128801 21.72475515 -13.546875 18.90625 C-13.54423171 17.11457771 -13.53910669 15.32290701 -13.53125 13.53125 C-13.53934692 12.68949219 -13.54744385 11.84773437 -13.55578613 10.98046875 C-13.49846604 7.39988581 -13.35026558 5.13363238 -11.52929688 2.00195312 C-7.73810736 -0.20249916 -4.31507305 -0.04150697 0 0 Z M3 16.53125 C3 21.81125 3 27.09125 3 32.53125 C8.28 32.53125 13.56 32.53125 19 32.53125 C19 27.25125 19 21.97125 19 16.53125 C13.72 16.53125 8.44 16.53125 3 16.53125 Z " fill="#000000" transform="translate(141,167.46875)"/>
<path d="M0 0 C0.87269531 -0.0038269 1.74539062 -0.00765381 2.64453125 -0.01159668 C4.48699092 -0.0143149 6.32948924 -0.00695994 8.171875 0.00976562 C10.99045934 0.03117752 13.80649485 0.00996199 16.625 -0.015625 C18.41667229 -0.01298171 20.20834299 -0.00785669 22 0 C22.84175781 -0.00809692 23.68351562 -0.01619385 24.55078125 -0.02453613 C28.13136419 0.03278396 30.39761762 0.18098442 33.52929688 2.00195312 C35.73374916 5.79314264 35.57275697 9.21617695 35.53125 13.53125 C35.5350769 14.40394531 35.53890381 15.27664062 35.54284668 16.17578125 C35.5455649 18.01824092 35.53820994 19.86073924 35.52148438 21.703125 C35.50007248 24.52170934 35.52128801 27.33774485 35.546875 30.15625 C35.54423171 31.94792229 35.53910669 33.73959299 35.53125 35.53125 C35.53934692 36.37300781 35.54744385 37.21476562 35.55578613 38.08203125 C35.49846604 41.66261419 35.35026558 43.92886762 33.52929688 47.06054688 C29.73810736 49.26499916 26.31507305 49.10400697 22 49.0625 C21.12730469 49.0663269 20.25460938 49.07015381 19.35546875 49.07409668 C17.51300908 49.0768149 15.67051076 49.06945994 13.828125 49.05273438 C11.00954066 49.03132248 8.19350515 49.05253801 5.375 49.078125 C3.58332771 49.07548171 1.79165701 49.07035669 0 49.0625 C-0.84175781 49.07059692 -1.68351562 49.07869385 -2.55078125 49.08703613 C-6.13136419 49.02971604 -8.39761762 48.88151558 -11.52929688 47.06054688 C-13.73374916 43.26935736 -13.57275697 39.84632305 -13.53125 35.53125 C-13.5350769 34.65855469 -13.53890381 33.78585938 -13.54284668 32.88671875 C-13.5455649 31.04425908 -13.53820994 29.20176076 -13.52148438 27.359375 C-13.50007248 24.54079066 -13.52128801 21.72475515 -13.546875 18.90625 C-13.54423171 17.11457771 -13.53910669 15.32290701 -13.53125 13.53125 C-13.53934692 12.68949219 -13.54744385 11.84773437 -13.55578613 10.98046875 C-13.49846604 7.39988581 -13.35026558 5.13363238 -11.52929688 2.00195312 C-7.73810736 -0.20249916 -4.31507305 -0.04150697 0 0 Z M3 16.53125 C3 21.81125 3 27.09125 3 32.53125 C8.28 32.53125 13.56 32.53125 19 32.53125 C19 27.25125 19 21.97125 19 16.53125 C13.72 16.53125 8.44 16.53125 3 16.53125 Z " fill="#000000" transform="translate(85,167.46875)"/>
<path d="M0 0 C0.87269531 -0.0038269 1.74539062 -0.00765381 2.64453125 -0.01159668 C4.48699092 -0.0143149 6.32948924 -0.00695994 8.171875 0.00976562 C10.99045934 0.03117752 13.80649485 0.00996199 16.625 -0.015625 C18.41667229 -0.01298171 20.20834299 -0.00785669 22 0 C22.84175781 -0.00809692 23.68351562 -0.01619385 24.55078125 -0.02453613 C28.13136419 0.03278396 30.39761762 0.18098442 33.52929688 2.00195312 C35.73374916 5.79314264 35.57275697 9.21617695 35.53125 13.53125 C35.5350769 14.40394531 35.53890381 15.27664062 35.54284668 16.17578125 C35.5455649 18.01824092 35.53820994 19.86073924 35.52148438 21.703125 C35.50007248 24.52170934 35.52128801 27.33774485 35.546875 30.15625 C35.54423171 31.94792229 35.53910669 33.73959299 35.53125 35.53125 C35.53934692 36.37300781 35.54744385 37.21476562 35.55578613 38.08203125 C35.49846604 41.66261419 35.35026558 43.92886762 33.52929688 47.06054688 C29.73810736 49.26499916 26.31507305 49.10400697 22 49.0625 C21.12730469 49.0663269 20.25460938 49.07015381 19.35546875 49.07409668 C17.51300908 49.0768149 15.67051076 49.06945994 13.828125 49.05273438 C11.00954066 49.03132248 8.19350515 49.05253801 5.375 49.078125 C3.58332771 49.07548171 1.79165701 49.07035669 0 49.0625 C-0.84175781 49.07059692 -1.68351563 49.07869385 -2.55078125 49.08703613 C-6.13136419 49.02971604 -8.39761762 48.88151558 -11.52929688 47.06054688 C-13.73374916 43.26935736 -13.57275697 39.84632305 -13.53125 35.53125 C-13.5350769 34.65855469 -13.53890381 33.78585938 -13.54284668 32.88671875 C-13.5455649 31.04425908 -13.53820994 29.20176076 -13.52148438 27.359375 C-13.50007248 24.54079066 -13.52128801 21.72475515 -13.546875 18.90625 C-13.54423171 17.11457771 -13.53910669 15.32290701 -13.53125 13.53125 C-13.53934692 12.68949219 -13.54744385 11.84773438 -13.55578613 10.98046875 C-13.49846604 7.39988581 -13.35026558 5.13363238 -11.52929688 2.00195312 C-7.73810736 -0.20249916 -4.31507305 -0.04150697 0 0 Z M3 16.53125 C3 21.81125 3 27.09125 3 32.53125 C8.28 32.53125 13.56 32.53125 19 32.53125 C19 27.25125 19 21.97125 19 16.53125 C13.72 16.53125 8.44 16.53125 3 16.53125 Z " fill="#000000" transform="translate(197,111.46875)"/>
<path d="M0 0 C0.87269531 -0.0038269 1.74539062 -0.00765381 2.64453125 -0.01159668 C4.48699092 -0.0143149 6.32948924 -0.00695994 8.171875 0.00976562 C10.99045934 0.03117752 13.80649485 0.00996199 16.625 -0.015625 C18.41667229 -0.01298171 20.20834299 -0.00785669 22 0 C22.84175781 -0.00809692 23.68351562 -0.01619385 24.55078125 -0.02453613 C28.13136419 0.03278396 30.39761762 0.18098442 33.52929688 2.00195312 C35.73374916 5.79314264 35.57275697 9.21617695 35.53125 13.53125 C35.5350769 14.40394531 35.53890381 15.27664062 35.54284668 16.17578125 C35.5455649 18.01824092 35.53820994 19.86073924 35.52148438 21.703125 C35.50007248 24.52170934 35.52128801 27.33774485 35.546875 30.15625 C35.54423171 31.94792229 35.53910669 33.73959299 35.53125 35.53125 C35.53934692 36.37300781 35.54744385 37.21476562 35.55578613 38.08203125 C35.49846604 41.66261419 35.35026558 43.92886762 33.52929688 47.06054688 C29.73810736 49.26499916 26.31507305 49.10400697 22 49.0625 C21.12730469 49.0663269 20.25460938 49.07015381 19.35546875 49.07409668 C17.51300908 49.0768149 15.67051076 49.06945994 13.828125 49.05273438 C11.00954066 49.03132248 8.19350515 49.05253801 5.375 49.078125 C3.58332771 49.07548171 1.79165701 49.07035669 0 49.0625 C-0.84175781 49.07059692 -1.68351563 49.07869385 -2.55078125 49.08703613 C-6.13136419 49.02971604 -8.39761762 48.88151558 -11.52929688 47.06054688 C-13.73374916 43.26935736 -13.57275697 39.84632305 -13.53125 35.53125 C-13.5350769 34.65855469 -13.53890381 33.78585938 -13.54284668 32.88671875 C-13.5455649 31.04425908 -13.53820994 29.20176076 -13.52148438 27.359375 C-13.50007248 24.54079066 -13.52128801 21.72475515 -13.546875 18.90625 C-13.54423171 17.11457771 -13.53910669 15.32290701 -13.53125 13.53125 C-13.53934692 12.68949219 -13.54744385 11.84773438 -13.55578613 10.98046875 C-13.49846604 7.39988581 -13.35026558 5.13363238 -11.52929688 2.00195312 C-7.73810736 -0.20249916 -4.31507305 -0.04150697 0 0 Z M3 16.53125 C3 21.81125 3 27.09125 3 32.53125 C8.28 32.53125 13.56 32.53125 19 32.53125 C19 27.25125 19 21.97125 19 16.53125 C13.72 16.53125 8.44 16.53125 3 16.53125 Z " fill="#000000" transform="translate(141,111.46875)"/>
<path d="M0 0 C0.87269531 -0.0038269 1.74539062 -0.00765381 2.64453125 -0.01159668 C4.48699092 -0.0143149 6.32948924 -0.00695994 8.171875 0.00976562 C10.99045934 0.03117752 13.80649485 0.00996199 16.625 -0.015625 C18.41667229 -0.01298171 20.20834299 -0.00785669 22 0 C22.84175781 -0.00809692 23.68351562 -0.01619385 24.55078125 -0.02453613 C28.13136419 0.03278396 30.39761762 0.18098442 33.52929688 2.00195312 C35.73374916 5.79314264 35.57275697 9.21617695 35.53125 13.53125 C35.5350769 14.40394531 35.53890381 15.27664062 35.54284668 16.17578125 C35.5455649 18.01824092 35.53820994 19.86073924 35.52148438 21.703125 C35.50007248 24.52170934 35.52128801 27.33774485 35.546875 30.15625 C35.54423171 31.94792229 35.53910669 33.73959299 35.53125 35.53125 C35.53934692 36.37300781 35.54744385 37.21476562 35.55578613 38.08203125 C35.49846604 41.66261419 35.35026558 43.92886762 33.52929688 47.06054688 C29.73810736 49.26499916 26.31507305 49.10400697 22 49.0625 C21.12730469 49.0663269 20.25460938 49.07015381 19.35546875 49.07409668 C17.51300908 49.0768149 15.67051076 49.06945994 13.828125 49.05273438 C11.00954066 49.03132248 8.19350515 49.05253801 5.375 49.078125 C3.58332771 49.07548171 1.79165701 49.07035669 0 49.0625 C-0.84175781 49.07059692 -1.68351562 49.07869385 -2.55078125 49.08703613 C-6.13136419 49.02971604 -8.39761762 48.88151558 -11.52929688 47.06054688 C-13.73374916 43.26935736 -13.57275697 39.84632305 -13.53125 35.53125 C-13.5350769 34.65855469 -13.53890381 33.78585938 -13.54284668 32.88671875 C-13.5455649 31.04425908 -13.53820994 29.20176076 -13.52148438 27.359375 C-13.50007248 24.54079066 -13.52128801 21.72475515 -13.546875 18.90625 C-13.54423171 17.11457771 -13.53910669 15.32290701 -13.53125 13.53125 C-13.53934692 12.68949219 -13.54744385 11.84773438 -13.55578613 10.98046875 C-13.49846604 7.39988581 -13.35026558 5.13363238 -11.52929688 2.00195312 C-7.73810736 -0.20249916 -4.31507305 -0.04150697 0 0 Z M3 16.53125 C3 21.81125 3 27.09125 3 32.53125 C8.28 32.53125 13.56 32.53125 19 32.53125 C19 27.25125 19 21.97125 19 16.53125 C13.72 16.53125 8.44 16.53125 3 16.53125 Z " fill="#000000" transform="translate(85,111.46875)"/>
<path d="M0 0 C0.66 -0.0103125 1.32 -0.020625 2 -0.03125 C4.98174986 0.76077731 6.16411059 2.04673186 8 4.5 C8.390625 7.515625 8.390625 7.515625 8.25 10.75 C8.21390625 11.82765625 8.1778125 12.9053125 8.140625 14.015625 C8.07101563 15.24539062 8.07101563 15.24539062 8 16.5 C10.64 16.5 13.28 16.5 16 16.5 C15.95359375 15.68015625 15.9071875 14.8603125 15.859375 14.015625 C15.80523437 12.39914063 15.80523437 12.39914063 15.75 10.75 C15.70359375 9.68265625 15.6571875 8.6153125 15.609375 7.515625 C16 4.5 16 4.5 17.765625 2.140625 C20.12289805 0.40976018 21.12470206 -0.04492653 24 0 C24.66 -0.0103125 25.32 -0.020625 26 -0.03125 C29.05368756 0.77988576 30.09111769 1.96980288 32 4.5 C32.60114553 7.49736221 32.56057764 10.45109277 32.53125 13.5 C32.5350769 14.37269531 32.53890381 15.24539062 32.54284668 16.14453125 C32.5455649 17.98699092 32.53820994 19.82948924 32.52148438 21.671875 C32.50007248 24.49045934 32.52128801 27.30649485 32.546875 30.125 C32.54423171 31.91667229 32.53910669 33.70834299 32.53125 35.5 C32.53934692 36.34175781 32.54744385 37.18351562 32.55578613 38.05078125 C32.46235399 43.88715618 32.46235399 43.88715618 30.09179688 47.02929688 C27.8272647 48.62144695 26.7390083 49.042797 24 49 C23.01 49.01546875 23.01 49.01546875 22 49.03125 C19.01825014 48.23922269 17.83588941 46.95326814 16 44.5 C15.609375 41.484375 15.609375 41.484375 15.75 38.25 C15.78609375 37.17234375 15.8221875 36.0946875 15.859375 34.984375 C15.90578125 34.16453125 15.9521875 33.3446875 16 32.5 C13.36 32.5 10.72 32.5 8 32.5 C8.04640625 33.31984375 8.0928125 34.1396875 8.140625 34.984375 C8.19476563 36.60085937 8.19476563 36.60085937 8.25 38.25 C8.29640625 39.31734375 8.3428125 40.3846875 8.390625 41.484375 C8 44.5 8 44.5 6.234375 46.859375 C3.87710195 48.59023982 2.87529794 49.04492653 0 49 C-0.99 49.01546875 -0.99 49.01546875 -2 49.03125 C-5.05368756 48.22011424 -6.09111769 47.03019712 -8 44.5 C-8.60114553 41.50263779 -8.56057764 38.54890723 -8.53125 35.5 C-8.5350769 34.62730469 -8.53890381 33.75460938 -8.54284668 32.85546875 C-8.5455649 31.01300908 -8.53820994 29.17051076 -8.52148438 27.328125 C-8.50007248 24.50954066 -8.52128801 21.69350515 -8.546875 18.875 C-8.54423171 17.08332771 -8.53910669 15.29165701 -8.53125 13.5 C-8.53934692 12.65824219 -8.54744385 11.81648438 -8.55578613 10.94921875 C-8.46235399 5.11284382 -8.46235399 5.11284382 -6.09179688 1.97070312 C-3.8272647 0.37855305 -2.7390083 -0.042797 0 0 Z " fill="#000000" transform="translate(140,55.5)"/>
<path d="M0 0 C3.32635764 2.18839318 3.90585122 3.62340488 4.875 7.5 C5.04878049 12.36585366 5.04878049 12.36585366 3 15 C-0.21955988 17.29968563 -3.12559532 17.55348638 -7 17 C-10.63525215 14.39210172 -11.83397068 12.9297642 -12.625 8.5 C-11.33940733 1.30068103 -7.0374661 -1.15158536 0 0 Z " fill="#000000" transform="translate(332,64)"/>
</svg>
